<?xml version="1.0" encoding="UTF-8"?>
<svg xmlns="http://www.w3.org/2000/svg" xmlns:xlink="http://www.w3.org/1999/xlink" version="1.1" viewBox="0 0 377.9 448.7">
  <!-- Generator: Adobe Illustrator 30.1.0, SVG Export Plug-In . SVG Version: 2.1.1 Build 136)  -->
  <defs>
    <style>
      .st0 {
        stroke-width: 1px;
      }

      .st0, .st1, .st2, .st3, .st4, .st5 {
        fill: none;
      }

      .st0, .st1, .st2, .st3, .st4, .st5, .st6 {
        stroke: #2f251b;
        stroke-miterlimit: 10;
      }

      .st1 {
        stroke-width: 11.3px;
      }

      .st2 {
        stroke-width: 19.8px;
      }

      .st3 {
        stroke-width: 2.8px;
      }

      .st4 {
        stroke-width: 5.7px;
      }

      .st5 {
        stroke-width: 5.7px;
      }

      .st7, .st6 {
        fill: #2f251b;
      }

      .st8 {
        display: none;
      }
    </style>
  </defs>
  <g id="Layer_1" class="st8">
    <image id="zfbKH6" width="1300" height="956" transform="translate(-46.7 -96.7) scale(.6)" xlink:href="favicon-1.png"/>
  </g>
  <g id="Layer_2">
    <circle class="st3" cx="139.5" cy="196.4" r="8.5"/>
    <path class="st7" d="M132.1,304.1c15.3-6.2,31.1-11.3,47.5-13.8,3.7-.5,7.9-.7,11.6-.5,10.2.3,20.4,1.5,30.3,4,9.9,2.5,19.7,6.1,28.2,11.8,0,0-.8,1.3-.8,1.3-17.8-9.2-38-12.2-57.9-13-9.9-.4-19.8,1.7-29.4,3.8-9.8,2.2-19.5,4.7-29.3,7.3,0,0-.3-.8-.3-.8h0Z"/>
    <path class="st7" d="M131.6,332.9c-4-9.2-6.6-18.9-6.9-29,0-6.1,1.5-12.2,3-18,2.1-7.7,4.7-15.3,8.4-22.4,2.1-3.8,4.6-7,7.2-10,1.3-1.5,2.7-2.9,4.3-4.2,1.6-1.2,3.3-2.3,5.5-3l.8.8c-1.4,5.9-5.4,10.2-8.4,15.2-3,4.7-4.5,9.7-6.4,15.1-2.6,8-5.3,16.1-6.8,24.3-1.3,10.3,0,20.5-.7,31.2h0Z"/>
    <path class="st7" d="M163.2,234.7c-4.7,1.2-6.5,4.3-5.8,8.9.3,2.1,1.1,4.5,2.1,6.3.8,1.3,1.4,1.5,2.8,1.6.6,0,.6,0,.8,0,.9-.5,1.9-1.6,3.3-2.1,1.1-.4,2.4-.5,3.6-.1,6.8,2.8,12.7,7.3,19.8,8.9.7,0,1.4,0,2.1-.1,4.6-.9,9.2-3.4,13.4-5.6,0,0,3.4-1.9,3.4-1.9,1.6-.8,2.4-1.5,4.5-1.8,1.1-.2,2.8.5,3.5,1.2,1.1.9.9,1.1,2,1.3,1.3.1,3.2-.4,4.2-1.1,0,0,0,0,0,0,0,0,0,0,0,0,0,0,0,.1,0,0,.9-2.9,1.8-6.3,2-9.2.2-1.7-.6-4-1.8-4.9-.4-.2-.8-.2-1.3-.3-1.9-.1-3.8-.1-5.8-.3,0,0,0-.3,0-.3,2.5-1.2,5.3-2.7,8.2-2.2,2.6.7,3.9,3.3,4.6,5.6.7,3.7-.3,7.2-1,10.6,0,.4-.5,2.1-.6,2.4-1.3,3.3-5.7,4.4-8.8,4.4-.9,0-2-.3-2.9-.9-.9-.5-1.5-1.1-1.8-1.4-.2-.1-.2-.1-.2-.1,0,0,.2,0,.1,0-1.4.5-4.5,2.4-5.9,3.2-5.4,2.9-10.9,6.2-17.3,6.6-.8,0-1.7-.2-2.5-.3-6.4-1.7-12.2-5.4-18.1-8.2-.3-.2-1.2-.5-1.5-.6,0,0,.1,0,.2,0,0,0,0,0,0,0-.6,0-.6.2-1.3.7-.5.4-1.2,1-2.3,1.4-.9.4-2.2.4-3.1.4-6.3-.2-8.8-7.1-9.7-12.3-.8-3.9.3-8.9,4.3-10.8,2.1-1.1,5-.9,6.8.2,0,0,0,.9,0,.9h0Z"/>
    <path class="st7" d="M150.5,345.5c9.8-10.7,25-16,39.4-15.2,10.7.5,21.7,2.6,31.1,8,3,1.9,6.1,4,8.1,7-1.4-1.1-2.9-2-4.4-2.7-10.9-5.2-23.1-6.4-35-7-2.5-.1-5.1,0-7.5,0-4.1.2-8.4,1-12.4,2-6.7,1.8-13.1,4.4-19.1,7.9,0,0,0-.1,0-.1h0Z"/>
    <path class="st7" d="M175.4,369.4c2.3-5.8,8.8-9.4,14.9-8.9,5.7.4,12.8,2.9,14.7,8.8-4.8-2.8-9.7-3.2-14.9-3.6-5.2-.3-9.6,1.4-14.5,3.7,0,0-.1,0-.1,0h0Z"/>
    <path class="st5" d="M142.3,301.3s.9,7.8,4.9,12.5,7.8,7.6,10.4,7.2,20.9-5.5,31.3-5.4,31.3,5.4,33.8,5.3,7-1.4,8.5-2.9,8.4-11.8,8.9-15.5"/>
    <path class="st5" d="M321.5,115.3c-.6-14.1-8.6-56.8-14.7-66.6-6.1-9.8-20.8-22-33.6-24.4-12.4-2.4-72.7-8.9-83.6-9.5h0c-7.5,0-69.7,6.5-82.5,8.9-12.8,2.4-27.5,14.7-33.6,24.4s-13.2,57-13.4,58.7c-.8,4.5-1.2,7.5-1.2,7.9-.6,14.1,10.4,67.8,11.6,74.5,1.2,6.7,1.4,35.9,2,44.5.1,1.7,2.1,4.8,3.7,10.1s1,3.7,1.4,5.9c4.3,24.7,9.8,67.3,10.6,70.9,1.2,4.9,38.5,39.1,42.2,40.9s25.7,24.4,30.5,26.3c4.3,1.6,24.1.4,28.8,0v.5s24.9,1.8,29.8,0,26.9-24.4,30.5-26.3c3.7-1.8,40.9-36,42.2-40.9s9.6-64.8,10.2-73.3c.2-2.2,4.3-11.2,4.8-16.8,1.5-16.5,1.7-36.2,2.6-41.2,1.2-6.7,12.2-60.5,11.6-74.5Z"/>
    <path class="st7" d="M249.9,332c-.7-10.7.6-20.9-.7-31.2-1.6-8.2-4.2-16.3-6.8-24.3-1.9-5.4-3.4-10.4-6.4-15.1-3-5-7-9.2-8.4-15.2,0,0,.8-.8.8-.8,2.1.7,3.9,1.8,5.5,3,1.6,1.2,3,2.6,4.3,4.2,2.6,3.1,5.1,6.2,7.2,10,3.7,7.2,6.3,14.7,8.4,22.4,1.5,5.9,2.9,11.9,3,18-.3,10-2.9,19.8-6.9,29h0Z"/>
    <path class="st4" d="M71,192.7s-11.7-13.9-16.8-16.9-11.7-8.1-18.1-7.1-15.8,4.3-16.8,6.4-3.6,5.1-2.5,9.9,5.8,16,5.8,19.8-2.8,16.3,0,21.9c2.8,5.6,14,9.7,16.5,13.2s9.7,28,15.5,31.8,9.4,4.3,12.5,3.8c3.1-.5,11.9-8.7,11.9-8.7"/>
    <path class="st7" d="M100.8,126.4c21.4-5.6,43.1-9.9,65-13,8.4-1.1,16.7-2.1,25.2-2,28.4,2.2,56.8,6.8,84.7,12.8-14.7-.7-29.4-1.8-44-3.1-11.7-1-29.4-2.8-41-3.4-15.2,0-30.8,2.5-46,4.1-14.6,1.8-29.1,3.6-43.8,5.1v-.5h0Z"/>
    <path class="st4" d="M97.5,180.1s7.9-12.1,18.5-16.9,15.7-4.8,19.1-4.2,36.3,9.1,37.2,10-1.2,9.4-3,9.4-32.1-9.7-38.7-9.4-33,11.2-33,11.2Z"/>
    <path class="st7" d="M176.7,181.1c1.6,3.8,3,7.5,3.3,11.7-.3,4.2-2.6,7.8-4.2,11.6-1.3,2.6-2.7,5.1-3.6,7.9-1.4,4.7-2.4,9.4-4.2,14.2,0,0-.2,0-.2,0-.3-4.1,0-8,.8-12,1-6,4.7-11.1,7.3-16.5.9-1.7,1.8-3.5,1.9-5.1.1-1.8-.2-3.8-.5-5.7-.3-1.9-.7-3.9-1.1-5.8h.4Z"/>
    <path class="st7" d="M110.4,218.7c7.6,2.2,15.6,4.6,23.4,5.1,3.9.1,6.8-2.6,9.9-4.5,3.3-2.2,6.5-4.7,9.6-7.1l3.3,4.6c-3.5,2.2-7,4.2-10.7,6.2-3.7,1.8-8,4.5-12.3,3.7-8.2-1.5-15.6-4.7-23.2-7.9h0Z"/>
    <path class="st7" d="M107.1,199.2l11.9,8.9,3,2.2c2.8,2.2,6.1,3.7,9.5,4.6,2.2.5,4.3.8,6.5,0,6.6-2.1,13.6-5.3,19.2-9.2,0,0,3.2,4.7,3.2,4.7-2.4,1.5-4.7,2.5-7.1,3.4-2.4,1-4.7,1.8-7.1,2.6-3.7,1.1-7.7,2.6-11.6,2.1-5.2-.8-10-3.4-13.7-6.9,0,0-2.7-2.5-2.7-2.5,0,0-11-10-11-10h0Z"/>
    <path class="st7" d="M113.6,203.1c1.6-9,6.3-18.1,14.5-22.9,9.6-5.4,18.9-4.9,27.2,2.5,5.1,4.6,9.4,10.3,12.2,16.6,0,0-.7,1.1-.7,1.1-5.3,8.1-10.5,16.1-16.3,23.8-1.4,2.1-3.6,3.8-5.9,4.9-6.5,3.3-13.4,5.5-20.2,7.7,4.4-1.9,8.8-3.8,13-6,3.1-1.6,6.3-3.3,8.9-5.5,3.6-4.5,6.1-10,9-15,2.3-4.2,4.5-8.4,6.7-12.6v2.6c-2.4-5.2-5.6-10.3-9.5-14.3-3.2-3.2-7.1-5.7-11.7-6-6.9-.2-13.7,2.6-18.3,7.7-4,4.3-6.8,9.9-8.2,15.7h-.4Z"/>
    <path class="st7" d="M103.8,139.8c21.5-5.3,43.2-9.2,65.2-11.9,8.4-1,16.7-1.8,25.2-1.5,28.4,2.6,56.7,7.7,84.5,14.2-14.7-.9-29.4-2.3-44-3.9-11.7-1.2-29.4-3.3-40.9-4.1-15.2-.3-30.8,2-46.1,3.4-14.6,1.5-29.2,3.1-43.9,4.4v-.5h0Z"/>
    <circle class="st3" cx="242" cy="196.7" r="8.5"/>
    <path class="st4" d="M283.9,180.4s-7.9-12.1-18.5-16.9c-10.6-4.8-15.7-4.8-19.1-4.2s-36.3,9.1-37.2,10,1.2,9.4,3,9.4,32.1-9.7,38.7-9.4,33,11.2,33,11.2Z"/>
    <path class="st7" d="M205.2,181.5c-.7,3.7-1.7,7.8-1.5,11.5,1.8,7.4,8,13.8,9.2,21.6.7,4,1,8,.8,12h-.2c-1.8-4.7-2.8-9.4-4.2-14.1-.9-2.7-2.3-5.2-3.6-7.9-1.7-3.7-4-7.4-4.2-11.6,0-2.2.6-4.1,1.2-6.1.6-1.9,1.3-3.8,2.1-5.6,0,0,.4.1.4.1h0Z"/>
    <path class="st7" d="M271,219c-7.6,3.2-14.9,6.4-23.2,7.9-4.3.8-8.6-1.9-12.3-3.7-3.7-1.9-7.2-4-10.7-6.2,0,0,3.3-4.6,3.3-4.6,3.1,2.5,6.3,4.9,9.6,7.1,3.2,1.9,6.1,4.6,9.9,4.5,7.8-.5,15.8-2.9,23.4-5.1h0Z"/>
    <path class="st7" d="M274.3,199.5l-11,10-2.7,2.5c-3.8,3.5-8.6,6.1-13.7,6.9-4,.5-7.9-1.1-11.6-2.1-2.4-.8-4.8-1.6-7.1-2.6-2.4-1-4.7-2-7.1-3.4l3.2-4.7c5.6,3.9,12.6,7.1,19.2,9.2,2.2.7,4.3.4,6.5,0,3.4-.9,6.7-2.4,9.5-4.6,0,0,3-2.2,3-2.2l11.9-8.9h0Z"/>
    <path class="st7" d="M267.5,203.5c-2.2-8.6-7.2-16.9-15.2-20.9-3.5-1.8-7.5-2.6-11.4-2.5-4.6.3-8.5,2.8-11.7,6-4,4-7.2,9.1-9.4,14.3,0,0-.1-2.6-.1-2.6,2.2,4.2,4.4,8.5,6.7,12.6,2.9,5,5.4,10.5,9,15,2.6,2.3,5.8,3.9,8.9,5.5,4.2,2.2,8.6,4.2,13,6-6.9-2.2-13.7-4.4-20.2-7.7-2.3-1.1-4.4-2.8-5.9-4.9-5.8-7.7-11-15.7-16.3-23.8,0,0-.7-1.1-.7-1.1,2.8-6.3,7.1-12,12.2-16.6,3.9-3.5,9.1-6.2,14.6-6.1,7.6.2,15,3.9,19.7,9.8,3.9,4.9,6.3,10.7,7.4,16.8,0,0-.4,0-.4,0h0Z"/>
    <circle class="st6" cx="140.8" cy="195.9" r="2.5"/>
    <circle class="st6" cx="242" cy="195.8" r="2.5"/>
    <path class="st7" d="M34.6,217.8c-1.5-8.4-3-16.8-2.9-25.4.1-3.9.3-8.5,5.1-9.2,3.8-.7,7.4.5,10.7,2.1,4.9,2.3,8.9,6.4,11.7,11,4.1,6.4,7.4,13,10.8,19.8,0,0-1.4,1.5-1.4,1.5-2.8,3.3-5.8,6.4-8.7,9.5,0,0,.5-4.1.5-4.1,3.5,5.9,6.9,11.7,9.3,18.2.2.6.4,1.4.5,2.1.4,2.2-.9,4.1-2.8,4.8-2.6.8-4.2,0-6.3-.6-.3,0-.5,0-.3-.1-1,.3-3.1,1.9-3.3,3.1.2,2,.8,4.2,1.5,6.1.4.9.8,1.7,1.7,2.3-4.1,1.5-8.2-4.2-8.8-7.7-.5-3.9,2.3-7.1,5.3-9,.6-.4,1.2-.7,2.4-1,2.3-.4,3.7.4,5.5.6.2,0,.3,0-.1,0-.6.2-1.3,1-1.5,1.9,0,.2,0,.5,0,.6,0-.3-.2-.5-.3-.8-2.8-6.6-6.6-13-10-19.4,0,0,1.9-1.7,1.9-1.7,3.1-2.9,6.2-5.9,9.5-8.7,0,0-.6,3.1-.6,3.1-2.5-6.2-5.3-12.4-8.4-18.2-2.2-4.3-5.3-8-9.5-10.4-3.1-1.8-7.3-3.5-10.7-1.8-3.9,4-1.3,25.4-.7,31.5h0Z"/>
    <path class="st4" d="M310.6,192.9s11.7-13.9,16.8-16.9,11.7-8.1,18.1-7.1,15.8,4.3,16.8,6.4,3.6,5.1,2.5,9.9-5.8,16-5.8,19.8,2.8,16.3,0,21.9c-2.8,5.6-14,9.7-16.5,13.2s-9.7,28-15.5,31.8c-5.8,3.8-9.4,4.3-12.5,3.8s-11.9-8.7-11.9-8.7"/>
    <path class="st7" d="M347,218.1c.6-6.2,3.2-27.6-.7-31.5-3.4-1.7-7.6,0-10.7,1.8-4.3,2.4-7.3,6.1-9.5,10.4-3.2,5.8-5.9,12.1-8.4,18.2,0,0-.6-3.1-.6-3.1,3.3,2.8,6.4,5.8,9.5,8.7,0,0,1.9,1.7,1.9,1.7-3.5,6.3-7.2,12.8-10,19.4-.1.3-.2.6-.3.8,0-.1,0-.4,0-.6-.2-.8-.9-1.7-1.5-1.9-.4-.1-.4,0-.1,0,1.9-.3,3.3-1,5.5-.6,1.2.3,1.7.6,2.4,1,2.9,1.9,5.8,5.1,5.3,9-.6,3.6-4.7,9.2-8.8,7.7.9-.6,1.3-1.4,1.7-2.3.7-1.9,1.4-4.1,1.5-6.1-.2-1.2-2.3-2.9-3.3-3.1.2,0,0,0-.3.1-2.1.5-3.7,1.4-6.3.6-2-.7-3.2-2.6-2.8-4.8.1-.7.3-1.5.5-2.1,2.4-6.5,5.8-12.3,9.3-18.2,0,0,.5,4.1.5,4.1-2.9-3.1-5.9-6.2-8.7-9.5,0,0-1.4-1.5-1.4-1.5,3.3-6.8,6.7-13.4,10.8-19.8,2.7-4.6,6.7-8.7,11.7-11,4.1-1.9,9.3-3.5,13.5-.9,5.2,4,.5,27-.6,33.4h0Z"/>
    <path class="st7" d="M78.1,243c9.3,4.5,18.2,9.3,26.6,15.6.7.6,1.6,1.3,2.2,2,.9.8,1.5,2,1.8,3.1,1.6,5.1,2.2,10.2,2.9,15.4,1.2,10.1,1.9,20.2,2.2,30.4,0,0-4.2-19.8-4.2-19.8-1.8-8.1-3.2-16.4-6-24-.2-.4-.3-.6-.5-.9-.2-.1-.5-.4-.6-.6-8.5-6.1-18.1-10.7-27-16.3,0,0,2.6-5,2.6-5h0Z"/>
    <path class="st7" d="M303.8,250.4c-8.5,5.2-17.4,9.8-25.7,15.3-.7.5-1.4,1-2,1.6-.9,1.5-1.3,3.4-1.9,5.2-1.7,6.3-3.1,13-4.5,19.6l-4.2,19.8c.3-10.2.9-20.3,2.2-30.4.7-5.2,1.3-10.3,2.9-15.4.3-1.1,1-2.3,1.8-3.1,3.2-3.2,7.2-5.5,10.8-7.9,5.8-3.6,11.8-6.8,17.9-9.7,0,0,2.7,5,2.7,5h0Z"/>
    <polyline class="st5" points="64.3 101.5 108.4 102.3 115.4 51.8 121.2 101.2 223.4 101.5 232.9 61.7 238.2 101.5 247.2 75.9 250.9 101.5 320.1 102"/>
    <path class="st5" d="M146.6,309.9s34.7-4.8,42.8-4.8,42.2,4.2,44.1,5.6"/>
    <line class="st5" x1="155.3" y1="298.6" x2="156.2" y2="306.6"/>
    <line class="st5" x1="168" y1="294.5" x2="168.2" y2="307.3"/>
    <line class="st1" x1="185.9" y1="293.7" x2="186" y2="305.1"/>
    <line class="st5" x1="203.9" y1="294.1" x2="204" y2="306.9"/>
    <line class="st5" x1="215.6" y1="294.7" x2="215.8" y2="307.4"/>
    <line class="st5" x1="229.7" y1="297" x2="225.2" y2="309"/>
    <line class="st5" x1="156.9" y1="308.2" x2="161.8" y2="318"/>
    <line class="st5" x1="168.9" y1="307.4" x2="173.8" y2="317.1"/>
    <line class="st2" x1="190.1" y1="303.8" x2="189.8" y2="314.7"/>
    <line class="st5" x1="207.3" y1="307.1" x2="209.8" y2="317.7"/>
    <line class="st5" x1="223.9" y1="309.4" x2="219.7" y2="319.5"/>
    <line class="st5" x1="213.6" y1="308" x2="209.6" y2="318.1"/>
    <line class="st5" x1="66.6" y1="68.2" x2="34.7" y2="48.6"/>
    <line class="st5" x1="68.6" y1="60" x2="43.8" y2="38.9"/>
    <rect class="st5" x="19.2" y="38.1" width="33.6" height="7.3" transform="translate(-18.8 47.5) rotate(-55.2)"/>
    <path class="st4" d="M94.1,328l1.5,41.1s25.1,42.5,95.1,38.6,93.4-35.5,93.4-35.5l.2-41.4"/>
    <path class="st4" d="M94.6,360.9s-10.3,7.4-11.2,17,6.5,21.7,18.6,30.3,52.9,26.4,86.7,23.8,60.3-6.9,76.7-12.6,27.3-14.7,29.5-22.1,4.8-21.2,0-26.9-10.8-8.7-10.8-8.7"/>
    <rect class="st4" x="183.6" y="413.4" width="13.7" height="13.7" rx="6.8" ry="6.8"/>
    <rect class="st4" x="236.9" y="405.1" width="13.7" height="13.7" rx="6.8" ry="6.8"/>
    <rect class="st4" x="277.2" y="382.9" width="13.7" height="13.7" rx="6.8" ry="6.8"/>
    <rect class="st4" x="127.9" y="405.2" width="13.7" height="13.7" rx="6.8" ry="6.8"/>
    <rect class="st4" x="91.6" y="382.7" width="13.7" height="13.7" rx="6.8" ry="6.8"/>
    <polygon class="st7" points="308.4 106.9 283.2 119.9 284.9 117.8 281.5 135.4 281.3 136.7 280.2 137.3 262.8 147.8 264 146.3 257.7 156.3 258.7 144.5 258.7 143.6 259.9 142.9 277.3 132.5 275.9 134.3 279.4 116.7 279.7 115.1 281.1 114.7 307.9 105.8 308.4 106.9 308.4 106.9"/>
    <line class="st0" x1="287.5" y1="107.3" x2="295" y2="121.9"/>
    <line class="st0" x1="277.1" y1="113.5" x2="290" y2="123.6"/>
    <line class="st0" x1="269.6" y1="131.1" x2="284.5" y2="138"/>
    <line class="st0" x1="272.2" y1="122.8" x2="287.6" y2="128.4"/>
    <line class="st0" x1="256.3" y1="141.6" x2="269.7" y2="151"/>
    <line class="st0" x1="264.2" y1="134" x2="276.4" y2="144.9"/>
  </g>
</svg>