<?xml version="1.0" encoding="UTF-8"?><svg id="Layer_2" xmlns="http://www.w3.org/2000/svg" viewBox="0 0 358.05 427.75"><defs><style>.cls-1{stroke-width:.99px;}.cls-1,.cls-2,.cls-3,.cls-4,.cls-5,.cls-6,.cls-7{stroke:#2f251b;stroke-miterlimit:10;}.cls-1,.cls-3,.cls-4,.cls-5,.cls-6{fill:none;}.cls-2,.cls-6{stroke-width:5.67px;}.cls-2,.cls-8,.cls-7{fill:#2f251b;}.cls-3{stroke-width:11.34px;}.cls-4{stroke-width:19.84px;}.cls-5{stroke-width:2.83px;}</style></defs><circle class="cls-5" cx="126.76" cy="186.11" r="8.67"/><path class="cls-8" d="M119.12,296.47c15.68-6.28,31.88-11.54,48.63-14.11,3.83-.51,8.07-.73,11.91-.56,10.46.31,20.9,1.56,31.07,4.07,10.13,2.52,20.15,6.19,28.86,12.05,0,0-.76,1.26-.76,1.26-18.23-9.4-38.98-12.57-59.28-13.32-10.16-.45-20.26,1.73-30.15,3.87-10.03,2.26-20.02,4.87-30.02,7.5,0,0-.27-.77-.27-.77h0Z"/><path class="cls-8" d="M118.61,325.87c-3.99-9.4-6.69-19.4-6.96-29.66.09-6.26,1.53-12.43,3.07-18.45,3.23-11.87,7.51-23.99,15.95-33.22,2.73-3.21,5.81-5.93,9.93-7.39,0,0,.85.8.85.8-1.07,4.1-3.13,7.42-5.5,10.72-4.81,6.33-7.3,12.81-9.71,20.26-2.39,7.28-4.77,14.79-6.45,22.22-.85,3.65-1.1,7.16-1.1,10.96-.06,7.71.27,15.65-.1,23.77h0Z"/><path class="cls-8" d="M151.02,225.32c-4.86,1.2-6.69,4.39-6.03,9.18.28,2.21,1.13,4.64,2.2,6.43.83,1.32,1.51,1.56,2.87,1.71.66.03.64.02.81-.02.97-.49,1.93-1.62,3.4-2.1,1.55-.61,3.34-.42,4.79.33,6.2,2.87,11.89,6.69,18.41,8.54.69.16,1.4.28,2.11.16,6.29-.95,12.38-4.78,18.05-7.77,3.8-2.14,5.91-2.98,9.39.42.25.16.4.21.81.26,1.36.12,3.31-.41,4.3-1.19.03-.03.08-.07.09-.08-.02,0,.02,0-.03.08,0,.02-.03.14,0,.04.88-3.01,1.8-6.45,2.02-9.41.15-1.74-.64-4.16-1.85-5.03-.39-.24-.85-.24-1.35-.29-1.97-.12-3.92-.09-5.94-.27,0,0-.07-.31-.07-.31,1.21-.69,2.47-1.19,3.77-1.64,2.37-.9,5.25-1.25,7.07.9,1.67,1.82,2.54,4.47,2.45,6.78-.14,3.67-.9,6.86-1.72,10.25-.2.9-.72,1.73-1.37,2.33-2.93,2.37-7.27,3.53-10.67,1.67-1-.59-1.57-1.28-2.01-1.53.03.03.14.03.1.04-.07,0-.39.12-.96.41-4.02,2.16-8.12,4.67-12.32,6.56-3.14,1.4-6.78,2.93-10.51,2.98-.79,0-1.77-.17-2.54-.34-6.58-1.77-12.5-5.54-18.51-8.44-.29-.16-1.18-.53-1.49-.65,0,.01.13.05.2.02.07-.02-.02,0-.04,0-.6.05-.66.18-1.39.71-.74.68-2.64,1.83-4.03,1.82-1.56.05-2.51-.07-4-.55-4.83-1.82-6.36-7.54-7.31-12.01-.85-4,.31-9.03,4.4-11,2.1-1.17,5.07-.94,6.9.17,0,0,0,.86,0,.86h0Z"/><path class="cls-8" d="M138.06,338.82c10.1-10.91,25.61-16.3,40.35-15.48,12.67.68,26.24,3.23,36.42,11.34,1.42,1.17,2.76,2.48,3.75,4.01-2.81-2.23-6.08-3.66-9.39-4.92-11.56-4.07-23.98-5.16-36.19-5.21-1.47.11-3.69.16-5.14.38-5.09.51-10.35,1.74-15.19,3.38-5.06,1.71-9.86,3.88-14.52,6.61,0,0-.1-.11-.1-.11h0Z"/><path class="cls-8" d="M163.5,363.32c2.35-5.86,8.99-9.57,15.29-9.04,5.79.38,13.06,2.92,15.01,9-2.51-1.61-5.05-2.29-7.58-2.84-4.92-.86-10.07-1.48-14.96-.04-2.46.68-4.95,1.72-7.65,3.02,0,0-.11-.1-.11-.1h0Z"/><path class="cls-6" d="M129.66,293.51s.93,7.95,4.97,12.8,7.94,7.81,10.64,7.4,21.41-5.65,32.04-5.52c10.64.13,32.04,5.52,34.6,5.39s7.14-1.48,8.75-2.96,8.62-12.12,9.16-15.89"/><path class="cls-8" d="M239.86,324.98c-.37-8.12-.04-16.06-.1-23.77,0-3.8-.25-7.31-1.1-10.96-1.68-7.44-4.06-14.94-6.45-22.22-2.41-7.45-4.9-13.93-9.71-20.26-2.37-3.3-4.43-6.61-5.5-10.72,0,0,.85-.8.85-.8,4.13,1.46,7.21,4.18,9.93,7.39,8.44,9.23,12.71,21.34,15.95,33.22,1.55,6.02,2.98,12.19,3.07,18.45-.27,10.26-2.96,20.27-6.96,29.66h0Z"/><path class="cls-6" d="M56.6,182.26s-12.04-14.22-17.25-17.34-11.98-8.34-18.49-7.29c-6.51,1.04-16.15,4.43-17.19,6.51s-3.65,5.21-2.6,10.16,5.99,16.41,5.99,20.32-2.87,16.67,0,22.4c2.87,5.73,14.33,9.9,16.93,13.54,2.6,3.65,9.9,28.65,15.89,32.56,5.99,3.91,9.64,4.43,12.76,3.91s12.21-8.93,12.21-8.93"/><path class="cls-8" d="M87.11,114.32c21.93-5.74,44.15-10.12,66.6-13.26,8.57-1.15,17.1-2.12,25.82-2.01,29.2,2.23,58.14,6.92,86.79,13.01-15.09-.7-30.11-1.92-45.1-3.26-12.03-1.01-30.16-2.89-41.98-3.55-15.62-.08-31.55,2.55-47.17,4.25-14.92,1.84-29.85,3.74-44.87,5.27,0,0-.08-.45-.08-.45h0Z"/><path class="cls-2" d="M83.74,169.41s8.06-12.4,18.91-17.36c10.85-4.96,16.12-4.96,19.53-4.34s37.2,9.3,38.13,10.23-1.24,9.61-3.1,9.61-32.86-9.92-39.68-9.61c-6.82.31-33.79,11.47-33.79,11.47Z"/><path class="cls-8" d="M164.9,170.42c1.6,3.9,3.07,7.65,3.36,11.99-.3,4.33-2.64,8.02-4.35,11.86-1.29,2.69-2.76,5.27-3.66,8.07-1.43,4.82-2.46,9.68-4.25,14.51,0,0-.16-.02-.16-.02-.23-6.19.16-12.67,2.7-18.39,2.25-5.29,6.28-10.62,7.54-16.09.13-3.81-.89-7.96-1.6-11.79,0,0,.43-.14.43-.14h0Z"/><path class="cls-8" d="M96.96,208.96c7.76,2.26,15.95,4.76,23.95,5.24,4.01.13,6.94-2.65,10.22-4.62,3.34-2.29,6.65-4.77,9.81-7.29l3.3,4.61c-3.59,2.25-7.19,4.35-10.93,6.33-3.81,1.85-8.22,4.6-12.62,3.79-8.43-1.49-15.97-4.82-23.73-8.07h0Z"/><path class="cls-8" d="M93.59,188.94l12.16,9.13,3.04,2.28c2.89,2.28,6.25,3.85,9.77,4.74,2.26.54,4.44.81,6.68.1,6.75-2.19,13.9-5.4,19.69-9.44,0,0,3.23,4.66,3.23,4.66-2.45,1.49-4.82,2.54-7.24,3.54-2.41.98-4.84,1.86-7.31,2.66-3.77,1.09-7.82,2.7-11.89,2.18-5.28-.84-10.21-3.48-14.06-7.07,0,0-2.82-2.55-2.82-2.55,0,0-11.26-10.22-11.26-10.22h0Z"/><path class="cls-8" d="M100.16,192.96c2.38-14.59,13.27-27.63,29.03-27.18,8.57.61,15.3,7.01,20.22,13.46,2.24,3.07,4.4,6.17,5.86,9.75-2.92,4.51-5.87,9-8.87,13.45-2.77,4.08-5.51,8.14-8.55,12.11-1.46,2.15-3.69,3.87-6,4.97-6.64,3.34-13.68,5.65-20.71,7.88,4.52-1.89,8.99-3.92,13.33-6.14,4.05-2.27,8.73-4.15,11.07-8.36,5.05-8.26,9.58-17.03,14.1-25.63,0,0-.13,2.59-.13,2.59-1.12-2.6-2.62-5.34-4.19-7.76-3.89-5.88-9.17-11.91-16.44-12.99-7.36-.7-14.84,2.37-19.83,7.82-4.1,4.43-6.96,10.12-8.43,16.09l-.45-.08h0Z"/><path class="cls-8" d="M90.18,128.06c22.02-5.37,44.31-9.39,66.81-12.16,8.59-1,17.13-1.84,25.85-1.58,29.16,2.71,58.02,7.88,86.56,14.44-15.08-.95-30.07-2.42-45.04-4.01-12.01-1.21-30.1-3.39-41.92-4.24-15.62-.33-31.58,2.03-47.24,3.47-14.94,1.59-29.91,3.24-44.95,4.53,0,0-.08-.46-.08-.46h0Z"/><circle class="cls-5" cx="231.71" cy="186.37" r="8.67"/><path class="cls-2" d="M274.73,169.67s-8.06-12.4-18.91-17.36c-10.85-4.96-16.12-4.96-19.53-4.34s-37.2,9.3-38.13,10.23,1.24,9.61,3.1,9.61,32.86-9.92,39.68-9.61,33.79,11.47,33.79,11.47Z"/><path class="cls-8" d="M194.01,170.82c-.71,3.82-1.73,7.98-1.6,11.78,1.85,7.64,8.21,14.19,9.43,22.18.74,4.07,1.06,8.15.81,12.3l-.16.02c-1.79-4.83-2.83-9.7-4.25-14.51-.9-2.8-2.37-5.38-3.66-8.07-1.71-3.84-4.05-7.53-4.35-11.86.09-2.26.64-4.23,1.23-6.22.59-1.97,1.31-3.89,2.13-5.77l.43.14h0Z"/><path class="cls-8" d="M261.51,209.23c-7.76,3.25-15.3,6.58-23.73,8.07-4.41.81-8.81-1.95-12.62-3.79-3.74-1.98-7.33-4.08-10.93-6.33l3.3-4.61c3.16,2.52,6.46,5,9.81,7.29,3.27,1.96,6.21,4.75,10.21,4.62,8.01-.48,16.19-2.98,23.95-5.24h0Z"/><path class="cls-8" d="M264.89,189.2l-11.26,10.22s-2.82,2.55-2.82,2.55c-3.85,3.59-8.78,6.24-14.06,7.07-4.07.52-8.12-1.09-11.89-2.18-2.46-.8-4.89-1.68-7.31-2.66-2.42-1-4.79-2.04-7.24-3.54,0,0,3.23-4.66,3.23-4.66,5.8,4.04,12.94,7.24,19.69,9.44,2.24.71,4.42.44,6.68-.1,3.52-.89,6.88-2.46,9.77-4.74,0,0,3.04-2.28,3.04-2.28l12.16-9.13h0Z"/><path class="cls-8" d="M257.86,193.3c-3.11-13.26-13.79-25.26-28.27-23.9-7.27,1.08-12.55,7.11-16.44,12.99-1.57,2.42-3.07,5.16-4.19,7.76,0,0-.13-2.59-.13-2.59,4.52,8.59,9.04,17.37,14.09,25.63,2.34,4.21,7.01,6.09,11.07,8.36,4.34,2.22,8.81,4.24,13.33,6.14-7.04-2.24-14.08-4.55-20.71-7.88-2.31-1.1-4.54-2.82-6-4.97-3.04-3.97-5.79-8.03-8.55-12.11-3-4.45-5.95-8.94-8.87-13.45,1.46-3.58,3.62-6.68,5.86-9.75,5.35-7.08,13.24-14.24,22.8-13.43,7.32.61,14.35,4.23,18.89,9.99,4.01,5.01,6.48,10.99,7.56,17.16,0,0-.45.08-.45.08h0Z"/><circle class="cls-7" cx="231.53" cy="186.4" r="5"/><path class="cls-8" d="M19.3,208.02c-1.56-8.56-3.03-17.26-3-26.02.11-2.47.13-5.4,1.71-7.57,2.39-2.42,6.3-2.27,9.29-1.61,7.28,1.69,13.43,6.83,17.14,13.2,4.15,6.55,7.6,13.31,10.99,20.22-3.42,3.75-6.8,7.57-10.33,11.22,0,0,.53-4.12.53-4.12,3.27,5.54,6.42,10.97,8.9,16.97.73,2.14,1.84,4.1.72,6.61-.44.89-1.49,1.68-2.44,1.99-2.6.83-4.25-.08-6.37-.6-.32-.09-.55-.08-.34-.12-.45.05-1.69.94-2.22,1.47-.68.7-1.05,1.12-1.18,1.8.07,1.16.38,2.42.71,3.63.59,1.79.95,3.83,2.63,4.97-4.7,1.7-10.2-6.37-8.75-10.64,1.37-4.18,5.88-8.41,10.41-7.42,1.05.19,2.02.49,2.87.6.26.04.31-.06-.09.05-.27.08-.54.31-.74.52-.56.54-.81,1.63-.76,1.9-.78-2.53-2.16-5.01-3.4-7.49-2.28-4.38-4.71-8.87-7.14-13.19,3.82-3.57,7.62-7.25,11.58-10.67,0,0-.59,3.15-.59,3.15-3.31-7.81-6.6-15.88-11.23-22.94-3.68-4.9-9.87-9.27-16.2-8.89-.74.08-1.4.33-2.01.65-1.55,1.38-1.63,4.26-1.92,6.39-.61,8.63.25,17.31,1.23,25.93h0Z"/><path class="cls-6" d="M302.03,182.53s12.04-14.22,17.25-17.34c5.21-3.13,11.98-8.34,18.49-7.29s16.15,4.43,17.19,6.51,3.65,5.21,2.6,10.16-5.99,16.41-5.99,20.32c0,3.91,2.87,16.67,0,22.4s-14.33,9.9-16.93,13.54c-2.6,3.65-9.9,28.65-15.89,32.56-5.99,3.91-9.64,4.43-12.76,3.91s-12.21-8.93-12.21-8.93"/><path class="cls-8" d="M339.34,208.29c.98-8.62,1.84-17.29,1.23-25.93-.28-2.13-.37-5.02-1.92-6.39-.61-.32-1.27-.57-2.01-.65-6.34-.39-12.52,3.99-16.2,8.89-4.64,7.06-7.92,15.13-11.23,22.94,0,0-.6-3.16-.58-3.15,3.96,3.41,7.76,7.09,11.58,10.66-2.44,4.32-4.86,8.81-7.14,13.19-1.23,2.47-2.62,4.96-3.4,7.49.05-.28-.2-1.35-.76-1.9-.2-.22-.47-.44-.74-.52-.4-.11-.34-.01-.09-.05.85-.11,1.82-.41,2.87-.6,4.54-.99,9.04,3.23,10.41,7.42,1.44,4.31-4.04,12.33-8.75,10.64,1.69-1.14,2.04-3.18,2.64-4.97.33-1.21.64-2.47.71-3.63-.12-.68-.5-1.1-1.18-1.81-.52-.53-1.76-1.41-2.22-1.47.21.04-.02.03-.34.12-2.12.52-3.77,1.43-6.37.6-.95-.32-2.01-1.1-2.44-1.99-1.12-2.52,0-4.46.72-6.61,2.47-6,5.63-11.44,8.9-16.97,0,0,.53,4.12.53,4.12-3.52-3.65-6.91-7.47-10.33-11.23,3.39-6.9,6.85-13.67,10.99-20.22,3.71-6.38,9.86-11.51,17.14-13.2,3-.67,6.91-.8,9.29,1.61,1.58,2.17,1.59,5.11,1.71,7.57.03,8.77-1.43,17.46-3,26.02h0Z"/><path class="cls-8" d="M63.76,233.91c9.51,4.62,18.67,9.58,27.2,15.97.74.61,1.6,1.31,2.26,2.03,2.2,2.22,2.57,5.78,3.24,8.55.7,3.49,1.16,6.95,1.6,10.41,1.26,10.35,1.97,20.74,2.27,31.16,0,0-4.24-20.33-4.24-20.33-1.86-8.26-3.23-16.79-6.13-24.6-.17-.4-.29-.64-.5-.91-.17-.14-.49-.43-.64-.58-8.74-6.26-18.53-11-27.71-16.67,0,0,2.65-5.01,2.65-5.01h0Z"/><path class="cls-8" d="M295.02,241.36c-8.72,5.31-17.86,10-26.34,15.64-.69.5-1.39,1.03-2.01,1.61-.97,1.58-1.43,3.52-2.03,5.47-1.78,6.5-3.19,13.3-4.61,20.04l-4.24,20.33c.29-10.42,1.01-20.81,2.27-31.16.72-5.34,1.29-10.53,2.97-15.79.34-1.08.99-2.35,1.87-3.16,3.28-3.23,7.35-5.64,11.09-8.03,5.99-3.64,12.05-6.99,18.37-9.97,0,0,2.65,5.01,2.65,5.01h0Z"/><path class="cls-8" d="M311.78,89.38l-70.87-.57-3.86-26.18-9.22,26.18-5.35-40.75-9.82,40.75-104.69-.31-5.94-50.55-7.14,51.75-48.39-.96c2.65-14.02,9.63-49.62,12.74-54.58,6.26-10.01,21.28-22.53,34.43-25.04,6.57-1.25,25.78-3.52,44.3-5.49S174.32,0,178.17,0c11.13.65,72.95,7.33,85.63,9.74,13.15,2.5,28.18,15.02,34.44,25.04,4.84,7.75,10.79,35.66,13.53,54.59Z"/><path class="cls-6" d="M46.49,88.73c-.61,3.21-.99,5.29-1.05,5.6-.77,4.6-1.23,7.64-1.24,8.05-.64,14.4,10.64,69.49,11.89,76.37,1.26,6.89,1.4,36.8,2.04,45.56.12,1.74,2.1,4.97,3.75,10.32.55,1.77,1.07,3.79,1.45,6.07,4.4,25.29,9.99,68.96,10.91,72.64,1.25,5.01,39.44,40.07,43.2,41.95s26.29,25.04,31.3,26.92c4.42,1.66,24.72.4,29.49.07v.56s25.48,1.87,30.49,0c5-1.89,27.54-25.04,31.29-26.92,3.76-1.89,41.95-36.94,43.2-41.95s9.86-66.36,10.48-75.12c.16-2.24,4.43-11.45,4.97-17.26,1.56-16.9,1.77-37.08,2.7-42.2,1.25-6.89,12.52-61.98,11.9-76.37-.14-3.28-.68-8.07-1.49-13.65-2.75-18.93-8.7-46.84-13.53-54.59-6.26-10.02-21.29-22.54-34.44-25.04C251.12,7.33,189.3.65,178.17,0c-3.85,0-21.69,1.65-40.21,3.62s-37.74,4.24-44.3,5.49c-13.15,2.51-28.17,15.03-34.43,25.04-3.1,4.96-10.08,40.56-12.74,54.58Z"/><polyline class="cls-6" points="46.49 88.73 94.88 89.69 102.02 37.94 107.97 88.5 212.66 88.8 222.47 48.06 227.82 88.8 237.04 62.62 240.91 88.8 311.78 89.38"/><path class="cls-6" d="M133.98,302.37s35.51-4.92,43.86-4.92,43.2,4.29,45.14,5.78"/><line class="cls-6" x1="142.96" y1="290.82" x2="143.82" y2="298.95"/><line class="cls-6" x1="155.96" y1="286.59" x2="156.13" y2="299.66"/><line class="cls-3" x1="174.28" y1="285.79" x2="174.43" y2="297.4"/><line class="cls-6" x1="192.7" y1="286.2" x2="192.87" y2="299.27"/><line class="cls-6" x1="204.75" y1="286.76" x2="204.91" y2="299.83"/><line class="cls-6" x1="219.14" y1="289.14" x2="214.56" y2="301.39"/><line class="cls-6" x1="144.61" y1="300.64" x2="149.63" y2="310.62"/><line class="cls-6" x1="156.9" y1="299.79" x2="161.92" y2="309.77"/><line class="cls-4" x1="178.58" y1="296.07" x2="178.31" y2="307.24"/><line class="cls-6" x1="196.2" y1="299.46" x2="198.78" y2="310.33"/><line class="cls-6" x1="213.23" y1="301.88" x2="208.89" y2="312.17"/><line class="cls-6" x1="202.65" y1="300.38" x2="198.6" y2="310.79"/><line class="cls-6" x1="52.06" y1="54.69" x2="19.42" y2="34.62"/><line class="cls-6" x1="54.15" y1="46.3" x2="28.7" y2="24.74"/><rect class="cls-2" x="3.49" y="23.89" width="34.44" height="7.49" transform="translate(-13.8 28.87) rotate(-55.2)"/><path class="cls-6" d="M80.23,320.93l1.52,42.16s25.77,43.52,97.49,39.53c71.72-4,95.7-36.42,95.7-36.42l.18-42.41"/><path class="cls-6" d="M80.75,354.57s-10.55,7.63-11.44,17.4,6.66,22.21,19.1,31.09c12.44,8.88,54.18,27.09,88.82,24.43,34.64-2.66,61.73-7.11,78.61-12.88,16.88-5.77,27.98-15.1,30.2-22.65,2.22-7.55,4.89-21.76,0-27.53-4.89-5.77-11.06-8.89-11.06-8.89"/><rect class="cls-2" x="171.9" y="408.39" width="13.99" height="13.99" rx="6.83" ry="6.83"/><rect class="cls-2" x="226.58" y="399.85" width="13.99" height="13.99" rx="6.83" ry="6.83"/><rect class="cls-2" x="267.79" y="377.16" width="13.99" height="13.99" rx="6.83" ry="6.83"/><rect class="cls-2" x="114.85" y="400" width="13.99" height="13.99" rx="6.83" ry="6.83"/><rect class="cls-2" x="77.62" y="376.89" width="13.99" height="13.99" rx="6.83" ry="6.83"/><polygon class="cls-8" points="299.78 94.36 274 107.61 275.68 105.54 272.18 123.59 271.94 124.82 270.86 125.47 253.05 136.2 254.28 134.66 247.86 144.96 248.9 132.87 248.97 132.03 250.13 131.34 267.93 120.62 266.61 122.5 270.12 104.46 270.43 102.84 271.8 102.38 299.31 93.25 299.78 94.36 299.78 94.36"/><line class="cls-1" x1="278.39" y1="94.8" x2="286.06" y2="109.73"/><line class="cls-1" x1="267.68" y1="101.14" x2="280.92" y2="111.47"/><line class="cls-1" x1="260.08" y1="119.14" x2="275.3" y2="126.21"/><line class="cls-1" x1="262.71" y1="110.71" x2="278.52" y2="116.35"/><line class="cls-1" x1="246.41" y1="129.93" x2="260.13" y2="139.6"/><line class="cls-1" x1="254.49" y1="122.17" x2="267.02" y2="133.35"/><circle class="cls-7" cx="126.74" cy="186.07" r="5"/></svg>